<?xml version="1.0" encoding="UTF-8" standalone="no"?>
<!-- Created with Inkscape (http://www.inkscape.org/) -->

<svg
   width="200.00018mm"
   height="200.0002mm"
   viewBox="0 0 200.00018 200.0002"
   version="1.1"
   id="svg1"
   inkscape:version="1.3.2 (091e20e, 2023-11-25, custom)"
   sodipodi:docname="PlusCircle.svg"
   xmlns:inkscape="http://www.inkscape.org/namespaces/inkscape"
   xmlns:sodipodi="http://sodipodi.sourceforge.net/DTD/sodipodi-0.dtd"
   xmlns="http://www.w3.org/2000/svg"
   xmlns:svg="http://www.w3.org/2000/svg">
  <sodipodi:namedview
     id="namedview1"
     pagecolor="#ffffff"
     bordercolor="#000000"
     borderopacity="0.25"
     inkscape:showpageshadow="2"
     inkscape:pageopacity="0.0"
     inkscape:pagecheckerboard="0"
     inkscape:deskcolor="#d1d1d1"
     inkscape:document-units="mm"
     inkscape:zoom="1.0449705"
     inkscape:cx="397.14038"
     inkscape:cy="561.25984"
     inkscape:window-width="2560"
     inkscape:window-height="1369"
     inkscape:window-x="1912"
     inkscape:window-y="-8"
     inkscape:window-maximized="1"
     inkscape:current-layer="layer1" />
  <defs
     id="defs1" />
  <g
     inkscape:label="Layer 1"
     inkscape:groupmode="layer"
     id="layer1">
    <path
       id="path1"
       style="fill:#f5673b;fill-opacity:1;stroke-width:0.504816"
       d="M 100.0001,0 A 100,100 0 0 0 0,100.0001 100,100 0 0 0 100.0001,200.0002 100,100 0 0 0 200.0002,100.0001 100,100 0 0 0 100.0001,0 Z M 83.291557,50.000049 h 33.417083 a 8.2915647,8.2915647 0 0 1 8.29148,8.291483 v 16.708541 h 16.70854 a 8.2915647,8.2915647 0 0 1 8.29149,8.291484 v 33.417083 a 8.2915647,8.2915647 0 0 1 -8.29149,8.29148 h -16.70854 v 16.70854 a 8.2915647,8.2915647 0 0 1 -8.29148,8.29149 H 83.291557 a 8.2915647,8.2915647 0 0 1 -8.291484,-8.29149 V 125.00012 H 58.291532 a 8.2915647,8.2915647 0 0 1 -8.291483,-8.29148 V 83.291557 a 8.2915647,8.2915647 0 0 1 8.291483,-8.291484 H 75.000073 V 58.291532 a 8.2915647,8.2915647 0 0 1 8.291484,-8.291483 z"
       inkscape:export-filename="path1.svg"
       inkscape:export-xdpi="96"
       inkscape:export-ydpi="96" />
  </g>
</svg>
